<?xml version="1.0" standalone="no"?>
<!DOCTYPE svg PUBLIC "-//W3C//DTD SVG 20010904//EN"
 "http://www.w3.org/TR/2001/REC-SVG-20010904/DTD/svg10.dtd">
<svg version="1.0" xmlns="http://www.w3.org/2000/svg"
 width="700.000000pt" height="700.000000pt" viewBox="0 0 700.000000 700.000000"
 preserveAspectRatio="xMidYMid meet">
<metadata>
Created by potrace 1.11, written by Peter Selinger 2001-2013
</metadata>
<g transform="translate(0.000000,700.000000) scale(0.100000,-0.100000)"
fill="#000000" stroke="none">
<path d="M3359 6996 c-2 -2 -38 -7 -79 -10 -41 -3 -113 -15 -160 -26 -47 -11
-96 -23 -110 -26 -171 -38 -489 -197 -640 -320 -195 -159 -312 -292 -458 -519
-35 -55 -134 -271 -161 -354 -35 -103 -67 -240 -77 -323 -3 -29 -7 -54 -8 -55
-2 -2 -340 -3 -752 -3 -707 -1 -751 -2 -790 -19 -50 -23 -81 -53 -105 -106
-18 -39 -19 -115 -19 -2135 0 -1328 4 -2108 10 -2129 14 -51 50 -97 95 -123
l40 -23 738 -5 739 -5 -34 -65 c-56 -106 -138 -193 -239 -253 -113 -66 -171
-80 -364 -84 -93 -2 -189 -8 -212 -14 -82 -22 -143 -109 -143 -203 0 -76 67
-163 143 -186 51 -15 354 -11 444 6 377 71 675 331 798 697 14 41 25 83 25 91
0 15 138 16 1458 16 l1457 0 23 -82 c85 -302 328 -563 627 -673 126 -47 224
-61 419 -64 l181 -2 55 28 c44 23 59 39 82 82 59 113 20 229 -95 281 -35 17
-66 20 -192 20 -92 0 -177 6 -220 15 -64 14 -204 74 -231 99 -7 6 -30 26 -53
45 -49 39 -120 136 -149 203 l-21 48 744 2 743 3 43 31 c24 18 54 52 66 75
l22 44 1 2113 c0 1774 -2 2118 -14 2146 -19 46 -79 101 -125 114 -27 9 -245
12 -779 12 -407 0 -743 3 -745 8 -3 4 -8 34 -12 67 -25 218 -146 530 -287 740
-290 430 -711 705 -1230 801 -73 14 -438 30 -449 20z"/>
</g>
</svg>
